<?xml version="1.0" encoding="iso-8859-1"?>
<!-- Generator: Adobe Illustrator 19.0.0, SVG Export Plug-In . SVG Version: 6.00 Build 0)  -->
<svg version="1.1" id="Layer_1" xmlns="http://www.w3.org/2000/svg" xmlns:xlink="http://www.w3.org/1999/xlink" x="0px" y="0px"
     viewBox="0 0 512 512" style="enable-background:new 0 0 512 512;" xml:space="preserve">
<g transform="translate(1 1)">
	<path style="fill:#D0E8F9;" d="M135.533,344.6L91.16,114.2h411.307v196.267c0,18.773-15.36,34.133-34.133,34.133H135.533"/>
    <path style="fill:#0096E6;" d="M468.333,353.133H128.707L80.92,105.667H511v204.8C511,334.36,492.227,353.133,468.333,353.133z
		 M142.36,336.067h325.973c13.653,0,25.6-11.093,25.6-25.6V122.733H101.4L142.36,336.067z"/>
    <path style="fill:#FFFFFF;" d="M237.933,421.4c0,23.893-18.773,42.667-42.667,42.667S152.6,445.293,152.6,421.4
		c0-23.893,18.773-42.667,42.667-42.667S237.933,397.507,237.933,421.4L237.933,421.4z"/>
    <path style="fill:#0096E6;" d="M195.267,472.6c-28.16,0-51.2-23.04-51.2-51.2s23.04-51.2,51.2-51.2s51.2,23.04,51.2,51.2
		S223.427,472.6,195.267,472.6z M195.267,387.267c-18.773,0-34.133,15.36-34.133,34.133s15.36,34.133,34.133,34.133
		S229.4,440.173,229.4,421.4S214.04,387.267,195.267,387.267z"/>
    <path style="fill:#FFFFFF;" d="M434.2,421.4c0,23.893-18.773,42.667-42.667,42.667s-42.667-18.773-42.667-42.667
		c0-23.893,18.773-42.667,42.667-42.667S434.2,397.507,434.2,421.4L434.2,421.4z"/>
    <g>
		<path style="fill:#0096E6;" d="M391.533,472.6c-28.16,0-51.2-23.04-51.2-51.2s23.04-51.2,51.2-51.2s51.2,23.04,51.2,51.2
			S419.693,472.6,391.533,472.6z M391.533,387.267c-18.773,0-34.133,15.36-34.133,34.133s15.36,34.133,34.133,34.133
			s34.133-15.36,34.133-34.133S410.307,387.267,391.533,387.267z"/>
        <path style="fill:#0096E6;" d="M476.867,421.4h-43.52c-5.12,0-8.533-3.413-8.533-8.533c0-5.12,3.413-8.533,8.533-8.533h43.52
			c5.12,0,8.533,3.413,8.533,8.533C485.4,417.987,481.987,421.4,476.867,421.4z M349.72,421.4H237.08
			c-5.12,0-8.533-3.413-8.533-8.533c0-5.12,3.413-8.533,8.533-8.533h112.64c5.12,0,8.533,3.413,8.533,8.533
			C358.253,417.987,354.84,421.4,349.72,421.4z M91.16,122.733c-4.267,0-7.68-2.56-8.533-6.827l-5.12-35.84H58.733
			c-5.12,0-8.533-3.413-8.533-8.533c0-5.12,3.413-8.533,8.533-8.533H91.16l8.533,49.493c0.853,5.12-2.56,9.387-6.827,10.24
			C92.013,122.733,92.013,122.733,91.16,122.733z"/>
	</g>
    <path style="fill:#FFFFFF;" d="M58.733,71.533c0,14.507-11.093,25.6-25.6,25.6s-25.6-11.093-25.6-25.6s11.093-25.6,25.6-25.6
		S58.733,57.027,58.733,71.533L58.733,71.533z"/>
    <g>
		<path style="fill:#0096E6;" d="M33.133,105.667C14.36,105.667-1,90.307-1,71.533S14.36,37.4,33.133,37.4
			s34.133,15.36,34.133,34.133S51.907,105.667,33.133,105.667z M33.133,54.467c-9.387,0-17.067,7.68-17.067,17.067
			S23.747,88.6,33.133,88.6S50.2,80.92,50.2,71.533S42.52,54.467,33.133,54.467z"/>
        <path style="fill:#0096E6;" d="M165.4,421.4H127c-11.947,0-23.893-5.12-31.573-14.507c-7.68-8.533-11.947-21.333-11.093-33.28
			c2.56-20.48,21.333-37.547,44.373-37.547h5.973L165.4,421.4z M122.733,353.987c-11.093,2.56-20.48,11.093-21.333,22.187
			c-0.853,7.68,1.707,14.507,6.827,19.627s11.947,8.533,18.773,8.533h14.507L122.733,353.987z M186.733,353.133v-76.8H114.2
			l-17.92-93.867h90.453v-76.8H280.6v76.8h59.733v-76.8H434.2v76.8H511v93.867h-76.8v76.8h-93.867v-76.8H280.6v76.8H186.733z
			 M203.8,276.333v59.733h59.733v-59.733H203.8z M357.4,276.333v59.733h59.733v-59.733H357.4z M434.2,259.267h59.733v-59.733H434.2
			V259.267z M357.4,259.267h59.733v-59.733H357.4V259.267z M280.6,259.267h59.733v-59.733H280.6V259.267z M203.8,259.267h59.733
			v-59.733H203.8V259.267z M127.853,259.267h58.88v-59.733H116.76L127.853,259.267z M357.4,182.467h59.733v-59.733H357.4V182.467z
			 M203.8,182.467h59.733v-59.733H203.8V182.467z"/>
	</g>
</g>
    <g>
</g>
    <g>
</g>
    <g>
</g>
    <g>
</g>
    <g>
</g>
    <g>
</g>
    <g>
</g>
    <g>
</g>
    <g>
</g>
    <g>
</g>
    <g>
</g>
    <g>
</g>
    <g>
</g>
    <g>
</g>
    <g>
</g>
</svg>
